<svg xmlns="http://www.w3.org/2000/svg" width="152" height="43" viewBox="0 0 152 43"><g fill="#015CAE"><path d="M80.613 20.91c.818-1.78 1.902-3.8 4.91-3.8 3.29 0 5.465 3.048 5.465 7.692 0 4.79-2.234 7.9-5.67 7.9-2.717 0-3.738-1.902-4.683-3.805v9.17h-2.528V17.412h2.506v3.498zm6.332 8.778c.964-.964 1.358-2.477 1.358-5.07 0-3.53-1.206-5.372-3.53-5.372-2.594 0-4.16 2.143-4.16 5.735 0 3.44 1.626 5.613 4.16 5.613.846.002 1.605-.306 2.172-.905zM105.693 28.477c-.566 1.267-.9 1.75-1.566 2.416-1.264 1.24-2.868 1.867-4.672 1.867-3.953 0-6.607-3.19-6.607-7.87 0-4.646 2.75-7.872 6.73-7.872 3.648 0 6.33 3.017 6.33 7.09 0 .452-.032.964-.056 1.602H95.468c.246 5.03 3.658 5.03 4.196 5.03 2.862 0 3.68-2.347 4.007-3.256l2.023.993zm-2.408-4.8c-.244-4.608-3.44-4.608-3.83-4.608-2.353 0-3.768 1.658-3.918 4.608h7.748zM111.144 20.305c.754-1.387 1.777-3.256 3.946-3.256.307 0 .667.026 1.056.06v2.623c-.63-.095-.932-.117-1.295-.117-2.196 0-3.74 1.6-3.74 3.855v8.84h-2.5V17.41h2.534v2.893zM152 32.342h-2.53v-9.59c0-2.228-1.144-3.532-3.073-3.532-2.205 0-3.78 1.544-3.78 3.712v9.41h-2.526v-14.9h2.528V20.1c1.39-2.027 3.018-3.046 4.86-3.046 2.688 0 4.522 1.986 4.522 4.94v10.348zM49.14 10.464h13.555l-.82 2.447h-9.897v6.897h8.976v2.47h-8.976v7.563h9.927l.88 2.47H49.138V10.464zM63.937 17.342h2.696l3.024 4.85 2.852-4.85h2.635l-4.123 7.062 4.908 7.906h-2.698l-3.542-5.664-3.302 5.664h-2.695l4.634-7.878-4.39-7.09zM119.044 29V17.44h2.535V32.34h-2.536V29zM121.796 13.56c0 .667-.545 1.212-1.212 1.212h-.554c-.666 0-1.21-.545-1.21-1.21v-.555c0-.667.544-1.21 1.21-1.21h.554c.667 0 1.212.542 1.212 1.21v.554zM136.12 28.71l.03-6.994c0-1.567-.033-4.76-5.496-4.728-2.934.014-5.16 1.556-5.16 1.556l.773 2.056s2.375-1.54 4.438-1.54c2.773-.005 3.016 1.507 3.016 2.688v1.314s-1.616-.452-3.028-.347c-2.423.18-3.937.818-4.998 1.91-.848.872-1.325 2.116-1.325 3.3 0 2.785 1.928 4.87 4.564 4.87 2.6 0 3.874-1.844 4.757-2.933 0 1.302.042 2.933 2.007 2.933.425 0 .815-.09 1.602-.333v-1.724c-1.09-.027-1.18-.18-1.18-2.027zm-3.734.822c-.79.755-1.58 1.208-2.605 1.208-1.67 0-2.95-1.153-2.95-2.78 0-.73.303-1.45.795-1.995.66-.784 1.604-1.384 3.33-1.715.795-.15 1.398-.094 2.76.17l.006 1.328c0 1.873-.34 2.816-1.334 3.784z"/></g><g fill="#015CAE"><path d="M10.93 7.613H9.69c-1.338 0-2.42 1.084-2.42 2.42v1.238c0 1.336 1.082 2.42 2.42 2.42h1.24c1.327 0 2.413-1.084 2.413-2.42v-1.237c0-1.336-1.086-2.42-2.414-2.42zM18.16 7.613h-1.24c-1.336 0-2.417 1.084-2.417 2.42v1.238c0 1.336 1.08 2.42 2.417 2.42h1.24c1.33 0 2.415-1.084 2.415-2.42v-1.237c0-1.336-1.086-2.42-2.415-2.42zM25.393 7.613h-1.24c-1.336 0-2.42 1.084-2.42 2.42v1.238c0 1.336 1.084 2.42 2.42 2.42h1.24c1.33 0 2.414-1.084 2.414-2.42v-1.237c0-1.336-1.085-2.42-2.414-2.42zM32.625 7.613h-1.24c-1.336 0-2.417 1.084-2.417 2.42v1.238c0 1.336 1.082 2.42 2.417 2.42h1.24c1.33 0 2.415-1.084 2.415-2.42v-1.237c0-1.336-1.086-2.42-2.415-2.42z"/></g><g fill="#015CAE"><path d="M10.93 14.846H9.69c-1.338 0-2.42 1.086-2.42 2.422v1.238c0 1.334 1.082 2.42 2.42 2.42h1.24c1.327 0 2.413-1.086 2.413-2.42v-1.238c0-1.336-1.086-2.422-2.414-2.422zM32.625 14.846h-1.24c-1.336 0-2.417 1.086-2.417 2.422v1.238c0 1.334 1.082 2.42 2.417 2.42h1.24c1.33 0 2.415-1.086 2.415-2.42v-1.238c0-1.336-1.086-2.422-2.415-2.422z"/></g><g fill="#015CAE"><path d="M10.93 22.082H9.69c-1.338 0-2.42 1.084-2.42 2.42v1.24c0 1.334 1.082 2.418 2.42 2.418h1.24c1.327 0 2.413-1.084 2.413-2.42v-1.238c0-1.335-1.086-2.42-2.414-2.42zM32.625 22.082h-1.24c-1.336 0-2.417 1.084-2.417 2.42v1.24c0 1.334 1.082 2.418 2.417 2.418h1.24c1.33 0 2.415-1.084 2.415-2.42v-1.238c0-1.335-1.086-2.42-2.415-2.42z"/></g><g fill="#015CAE"><path d="M10.93 29.316H9.69c-1.338 0-2.42 1.085-2.42 2.42v1.24c0 1.333 1.082 2.417 2.42 2.417h1.24c1.327 0 2.413-1.084 2.413-2.418v-1.238c0-1.336-1.086-2.42-2.414-2.42zM18.16 29.316h-1.24c-1.336 0-2.417 1.085-2.417 2.42v1.24c0 1.333 1.08 2.417 2.417 2.417h1.24c1.33 0 2.415-1.084 2.415-2.418v-1.238c0-1.336-1.086-2.42-2.415-2.42zM25.393 29.316h-1.24c-1.336 0-2.42 1.085-2.42 2.42v1.24c0 1.333 1.084 2.417 2.42 2.417h1.24c1.33 0 2.414-1.084 2.414-2.418v-1.238c0-1.336-1.085-2.42-2.414-2.42zM32.625 29.316h-1.24c-1.336 0-2.417 1.085-2.417 2.42v1.24c0 1.333 1.082 2.417 2.417 2.417h1.24c1.33 0 2.415-1.084 2.415-2.418v-1.238c0-1.336-1.086-2.42-2.415-2.42z"/></g><path fill="#015CAE" d="M40.383.346h-1.006c-1.053 0-1.912.86-1.912 1.916v1c0 1.058.86 1.914 1.912 1.914h1.006c1.056 0 1.916-.856 1.916-1.914v-1c0-1.057-.86-1.916-1.917-1.916z"/><path fill="#ED1951" d="M25.263.346h-1.005c-1.055 0-1.914.86-1.914 1.916v1c0 1.058.858 1.914 1.914 1.914h1.005c1.055 0 1.915-.856 1.915-1.914v-1c0-1.057-.86-1.916-1.915-1.916z"/><path fill="#015CAE" d="M18.032.346h-1.005c-1.055 0-1.913.86-1.913 1.916v1c0 1.058.857 1.914 1.913 1.914h1.005c1.056 0 1.916-.856 1.916-1.914v-1c0-1.057-.86-1.916-1.916-1.916z"/><path fill="#ED1951" d="M2.918.346H1.912C.858.346 0 1.206 0 2.262v1C0 4.32.858 5.176 1.912 5.176h1.006c1.055 0 1.915-.856 1.915-1.914v-1c0-1.057-.86-1.916-1.915-1.916z"/><path fill="#015CAE" d="M2.918 15.48H1.912C.858 15.48 0 16.337 0 17.394v1c0 1.058.858 1.915 1.912 1.915h1.006c1.055 0 1.915-.857 1.915-1.915v-1c0-1.057-.86-1.916-1.915-1.916z"/><path fill="#ED1951" d="M2.918 29.95H1.912C.858 29.95 0 30.81 0 31.868v1c0 1.058.858 1.915 1.912 1.915h1.006c1.055 0 1.915-.857 1.915-1.915v-1c0-1.056-.86-1.916-1.915-1.916zM40.383 15.474h-1.006c-1.053 0-1.912.86-1.912 1.916v1c0 1.057.86 1.915 1.912 1.915h1.006c1.056 0 1.916-.858 1.916-1.915v-1c0-1.057-.86-1.916-1.917-1.916z"/><path fill="#015CAE" d="M40.383 22.7h-1.006c-1.053 0-1.912.86-1.912 1.916v1c0 1.058.86 1.916 1.912 1.916h1.006c1.056 0 1.916-.858 1.916-1.915v-1c0-1.058-.86-1.917-1.917-1.917z"/><path fill="#ED1951" d="M40.383 37.824h-1.006c-1.053 0-1.912.86-1.912 1.916v1c0 1.057.86 1.915 1.912 1.915h1.006c1.056 0 1.916-.858 1.916-1.915v-1c0-1.057-.86-1.916-1.917-1.916z"/><path fill="#015CAE" d="M25.27 37.824h-1.006c-1.054 0-1.913.86-1.913 1.916v1c0 1.057.86 1.915 1.914 1.915h1.005c1.055 0 1.916-.858 1.916-1.915v-1c0-1.057-.862-1.916-1.917-1.916z"/><path fill="#ED1951" d="M10.808 37.824H9.802c-1.054 0-1.913.86-1.913 1.916v1c0 1.057.857 1.915 1.912 1.915h1.005c1.056 0 1.916-.858 1.916-1.915v-1c0-1.057-.86-1.916-1.915-1.916z"/><path fill="none" d="M-98.922-42.54h357.72V94.21h-357.72z"/></svg>